<svg width="44" height="28" viewBox="0 0 44 28" fill="none" xmlns="http://www.w3.org/2000/svg">
<g clip-path="url(#clip0)">
<path d="M39.8202 0H3.91685C3.76731 0 3.61752 0 3.46825 0.000871985C3.34208 0.00177039 3.21619 0.00317086 3.09031 0.00660595C2.81577 0.014031 2.53887 0.0302288 2.26776 0.0789543C1.99232 0.128525 1.73601 0.209382 1.48596 0.336692C1.24014 0.461703 1.01509 0.625213 0.820059 0.820327C0.624943 1.01544 0.461432 1.24012 0.336448 1.48621C0.209112 1.73625 0.128202 1.99264 0.0789744 2.2683C0.0299873 2.53949 0.0136812 2.81633 0.00628252 3.09058C0.00290028 3.21646 0.00144961 3.34235 0.000627829 3.4682C-0.000244156 3.61779 4.65059e-05 3.76727 4.65059e-05 3.91712V24.0832C4.65059e-05 24.233 -0.000244156 24.3822 0.000627829 24.5321C0.00144961 24.658 0.00290028 24.7839 0.00628252 24.9097C0.0136812 25.1838 0.0299873 25.4606 0.0789744 25.7317C0.128202 26.0075 0.209112 26.2637 0.336448 26.5138C0.461432 26.7599 0.624943 26.9849 0.820059 27.1797C1.01509 27.3751 1.24014 27.5386 1.48596 27.6633C1.73601 27.791 1.99232 27.8718 2.26776 27.9214C2.53887 27.9698 2.81577 27.9863 3.09031 27.9937C3.21619 27.9966 3.34208 27.9983 3.46825 27.9988C3.61752 28 3.76731 28 3.91685 28H39.8202C39.9694 28 40.1192 28 40.2685 27.9988C40.3943 27.9983 40.5202 27.9966 40.6467 27.9937C40.9206 27.9863 41.1975 27.9698 41.4693 27.9214C41.7443 27.8718 42.0007 27.791 42.2508 27.6633C42.4969 27.5386 42.7212 27.3751 42.9167 27.1797C43.1115 26.9849 43.275 26.7599 43.4003 26.5138C43.5279 26.2637 43.6087 26.0075 43.6577 25.7317C43.7067 25.4606 43.7227 25.1838 43.7301 24.9097C43.7335 24.7839 43.7352 24.658 43.7358 24.5321C43.737 24.3822 43.737 24.233 43.737 24.0832V3.91712C43.737 3.76727 43.737 3.61779 43.7358 3.4682C43.7352 3.34235 43.7335 3.21646 43.7301 3.09058C43.7227 2.81633 43.7067 2.53949 43.6577 2.2683C43.6087 1.99264 43.5279 1.73625 43.4003 1.48621C43.275 1.24012 43.1115 1.01544 42.9167 0.820327C42.7212 0.625213 42.4969 0.461703 42.2508 0.336692C42.0007 0.209382 41.7443 0.128525 41.4693 0.0789543C41.1975 0.0302288 40.9207 0.014031 40.6467 0.00660595C40.5202 0.00317086 40.3943 0.00177039 40.2685 0.000871985C40.1192 0 39.9694 0 39.8202 0Z" fill="black"/>
<path d="M39.8201 0.933319L40.2618 0.934165C40.3815 0.93501 40.5011 0.936305 40.6214 0.939582C40.8307 0.945236 41.0755 0.956572 41.3037 0.997476C41.5021 1.0332 41.6684 1.08753 41.8281 1.16881C41.9857 1.2489 42.1301 1.35385 42.2562 1.47976C42.3828 1.60652 42.4879 1.75116 42.569 1.91052C42.6498 2.06893 42.7038 2.23451 42.7393 2.43432C42.7801 2.66003 42.7914 2.90551 42.7972 3.11608C42.8004 3.23494 42.802 3.35379 42.8025 3.47547C42.8037 3.62263 42.8036 3.7697 42.8036 3.91715V24.0832C42.8036 24.2306 42.8037 24.3775 42.8025 24.5278C42.802 24.6466 42.8004 24.7654 42.7971 24.8845C42.7914 25.0948 42.7801 25.3401 42.7388 25.5685C42.7038 25.7656 42.6499 25.9312 42.5686 26.0904C42.4877 26.2493 42.3827 26.3938 42.2567 26.5198C42.1299 26.6466 41.986 26.7512 41.8265 26.8321C41.668 26.913 41.502 26.9672 41.3055 27.0026C41.0727 27.0441 40.8177 27.0555 40.6256 27.0607C40.5047 27.0634 40.3844 27.065 40.2612 27.0656C40.1144 27.0668 39.967 27.0667 39.8201 27.0667H3.91683C3.91487 27.0667 3.91297 27.0667 3.91099 27.0667C3.76581 27.0667 3.62035 27.0667 3.47254 27.0656C3.35202 27.065 3.23176 27.0634 3.1155 27.0608C2.91901 27.0555 2.66378 27.0441 2.43287 27.0028C2.23477 26.9672 2.06869 26.913 1.90814 26.831C1.75016 26.7509 1.60633 26.6464 1.47947 26.5193C1.35359 26.3936 1.24897 26.2496 1.16809 26.0904C1.08713 25.9313 1.03296 25.7652 0.997343 25.5658C0.956172 25.3379 0.944862 25.0935 0.93921 24.8847C0.935984 24.7651 0.934636 24.6456 0.93387 24.5267L0.933289 24.1758L0.933315 24.0832V3.91715L0.933289 3.82451L0.933843 3.47436C0.934636 3.3548 0.935984 3.23525 0.93921 3.11579C0.944862 2.90675 0.956172 2.66228 0.997683 2.43245C1.03299 2.23482 1.08713 2.06872 1.16851 1.90889C1.24876 1.7509 1.35356 1.60668 1.48011 1.48016C1.60615 1.35407 1.75044 1.24924 1.90944 1.16839C2.06827 1.0875 2.23466 1.0332 2.43276 0.997555C2.66101 0.956546 2.90598 0.945236 3.11579 0.939555C3.23538 0.936305 3.35498 0.93501 3.47367 0.934191L3.91683 0.933319H39.8201" fill="white"/>
<path d="M11.9399 9.41757C12.3144 8.94917 12.5685 8.32024 12.5015 7.67755C11.9533 7.70481 11.2843 8.03922 10.897 8.50799C10.5492 8.90942 10.2415 9.56468 10.3217 10.1804C10.9371 10.2338 11.5519 9.87283 11.9399 9.41757Z" fill="black"/>
<path d="M12.4945 10.3007C11.6008 10.2474 10.841 10.8079 10.4142 10.8079C9.98718 10.8079 9.33364 10.3275 8.62679 10.3404C7.70677 10.354 6.8531 10.8741 6.38623 11.7015C5.42596 13.3566 6.13282 15.8116 7.06663 17.1596C7.52011 17.8265 8.06663 18.5608 8.78676 18.5344C9.46715 18.5077 9.73384 18.0938 10.5609 18.0938C11.3873 18.0938 11.6276 18.5344 12.3478 18.521C13.0947 18.5077 13.5617 17.8538 14.0151 17.1863C14.5354 16.4261 14.7483 15.692 14.7617 15.6517C14.7483 15.6384 13.3215 15.091 13.3082 13.4497C13.2948 12.0754 14.4285 11.4217 14.4818 11.3811C13.8416 10.4343 12.8413 10.3275 12.4945 10.3007Z" fill="black"/>
<path d="M20.276 8.44072C22.2184 8.44072 23.571 9.77964 23.571 11.729C23.571 13.6853 22.1906 15.0312 20.2273 15.0312H18.0767V18.4513H16.5229V8.44072H20.276V8.44072ZM18.0767 13.7269H19.8596C21.2124 13.7269 21.9823 12.9986 21.9823 11.736C21.9823 10.4734 21.2124 9.75194 19.8665 9.75194H18.0767V13.7269V13.7269Z" fill="black"/>
<path d="M23.9769 16.3771C23.9769 15.1005 24.9551 14.3166 26.6896 14.2195L28.6874 14.1016V13.5397C28.6874 12.728 28.1393 12.2424 27.2237 12.2424C26.3564 12.2424 25.8152 12.6586 25.6836 13.3108H24.2684C24.3516 11.9926 25.4753 11.0214 27.2791 11.0214C29.0481 11.0214 30.1788 11.9579 30.1788 13.4217V18.4513H28.7427V17.2511H28.7082C28.2851 18.0628 27.3624 18.5761 26.4051 18.5761C24.976 18.5761 23.9769 17.6881 23.9769 16.3771ZM28.6874 15.718V15.1422L26.8905 15.2532C25.9956 15.3157 25.4893 15.7111 25.4893 16.3354C25.4893 16.9736 26.0165 17.3899 26.8212 17.3899C27.8687 17.3899 28.6874 16.6684 28.6874 15.718Z" fill="black"/>
<path d="M31.5346 21.136V19.922C31.6454 19.9497 31.8951 19.9497 32.0201 19.9497C32.7137 19.9497 33.0884 19.6584 33.3172 18.9091C33.3172 18.8952 33.4492 18.4652 33.4492 18.4582L30.8131 11.1532H32.4362L34.2817 17.0916H34.3093L36.1548 11.1532H37.7365L35.003 18.8327C34.3789 20.6019 33.6574 21.1707 32.145 21.1707C32.0201 21.1707 31.6454 21.1568 31.5346 21.136Z" fill="black"/>
</g>
<defs>
<clipPath id="clip0">
<rect width="43.7369" height="28" fill="white"/>
</clipPath>
</defs>
</svg>
