<svg width="54" height="28" viewBox="0 0 54 28" fill="none" xmlns="http://www.w3.org/2000/svg">
<g clip-path="url(#clip0)">
<path d="M39.4259 0H14.7859C7.08592 0 0.785919 6.3 0.785919 14C0.785919 21.7 7.08592 28 14.7859 28H39.4259C47.1259 28 53.4259 21.7 53.4259 14C53.4259 6.3 47.1259 0 39.4259 0Z" fill="white"/>
<path d="M39.4259 1.134C41.1549 1.134 42.8349 1.477 44.4169 2.149C45.9499 2.8 47.3219 3.731 48.5119 4.914C49.6949 6.097 50.6259 7.476 51.2769 9.009C51.9489 10.591 52.2919 12.271 52.2919 14C52.2919 15.729 51.9489 17.409 51.2769 18.991C50.6259 20.524 49.6949 21.896 48.5119 23.086C47.3289 24.269 45.9499 25.2 44.4169 25.851C42.8349 26.523 41.1549 26.866 39.4259 26.866H14.7859C13.0569 26.866 11.3769 26.523 9.79492 25.851C8.26192 25.2 6.88992 24.269 5.69992 23.086C4.51692 21.903 3.58592 20.524 2.93492 18.991C2.26292 17.409 1.91992 15.729 1.91992 14C1.91992 12.271 2.26292 10.591 2.93492 9.009C3.58592 7.476 4.51692 6.104 5.69992 4.914C6.88292 3.731 8.26192 2.8 9.79492 2.149C11.3769 1.477 13.0569 1.134 14.7859 1.134H39.4259ZM39.4259 0H14.7859C7.08592 0 0.785919 6.3 0.785919 14C0.785919 21.7 7.08592 28 14.7859 28H39.4259C47.1259 28 53.4259 21.7 53.4259 14C53.4259 6.3 47.1259 0 39.4259 0Z" fill="#3C4043"/>
<path d="M25.8879 14.994V19.229H24.5439V8.77097H28.1069C29.0099 8.77097 29.7799 9.07197 30.4099 9.67397C31.0539 10.276 31.3759 11.011 31.3759 11.879C31.3759 12.768 31.0539 13.503 30.4099 14.098C29.7869 14.693 29.0169 14.987 28.1069 14.987H25.8879V14.994ZM25.8879 10.059V13.706H28.1349C28.6669 13.706 29.1149 13.524 29.4649 13.167C29.8219 12.81 30.0039 12.376 30.0039 11.886C30.0039 11.403 29.8219 10.976 29.4649 10.619C29.1149 10.248 28.6739 10.066 28.1349 10.066H25.8879V10.059Z" fill="#3C4043"/>
<path d="M34.8899 11.8369C35.8839 11.8369 36.6679 12.1029 37.2419 12.6349C37.8159 13.1669 38.1029 13.8949 38.1029 14.8189V19.2289H36.8219V18.2349H36.7659C36.2129 19.0539 35.4709 19.4599 34.5469 19.4599C33.7559 19.4599 33.0979 19.2289 32.5659 18.7599C32.0339 18.2909 31.7679 17.7099 31.7679 17.0099C31.7679 16.2679 32.0479 15.6799 32.6079 15.2459C33.1679 14.8049 33.9169 14.5879 34.8479 14.5879C35.6459 14.5879 36.3039 14.7349 36.8149 15.0289V14.7209C36.8149 14.2519 36.6329 13.8599 36.2619 13.5309C35.8909 13.2019 35.4569 13.0409 34.9599 13.0409C34.2109 13.0409 33.6159 13.3559 33.1819 13.9929L31.9989 13.2509C32.6499 12.3059 33.6159 11.8369 34.8899 11.8369ZM33.1539 17.0309C33.1539 17.3809 33.3009 17.6749 33.6019 17.9059C33.8959 18.1369 34.2459 18.2559 34.6449 18.2559C35.2119 18.2559 35.7159 18.0459 36.1569 17.6259C36.5979 17.2059 36.8219 16.7159 36.8219 16.1489C36.4019 15.8199 35.8209 15.6519 35.0719 15.6519C34.5259 15.6519 34.0709 15.7849 33.7069 16.0439C33.3359 16.3169 33.1539 16.6459 33.1539 17.0309Z" fill="#3C4043"/>
<path d="M45.4109 12.0679L40.9309 22.3719H39.5449L41.2109 18.7669L38.2569 12.0679H39.7199L41.8479 17.2059H41.8759L43.9479 12.0679H45.4109Z" fill="#3C4043"/>
<path d="M20.542 14.1399C20.542 13.7017 20.5028 13.2824 20.43 12.8792H14.7964V15.1892L18.0409 15.1899C17.9093 15.9585 17.4858 16.6137 16.8369 17.0505V18.5492H18.7682C19.8959 17.5055 20.542 15.9627 20.542 14.1399Z" fill="#4285F4"/>
<path d="M16.8376 17.0506C16.3 17.4132 15.6077 17.6253 14.7978 17.6253C13.2333 17.6253 11.9061 16.5711 11.4308 15.1501H9.43863V16.6957C10.4256 18.6543 12.4542 19.9983 14.7978 19.9983C16.4176 19.9983 17.7784 19.4656 18.7689 18.5486L16.8376 17.0506Z" fill="#34A853"/>
<path d="M11.2432 14.0035C11.2432 13.6045 11.3097 13.2188 11.4308 12.8562V11.3106H9.43863C9.03053 12.1205 8.80093 13.0347 8.80093 14.0035C8.80093 14.9723 9.03123 15.8865 9.43863 16.6964L11.4308 15.1508C11.3097 14.7882 11.2432 14.4025 11.2432 14.0035Z" fill="#FABB05"/>
<path d="M14.7978 10.381C15.6819 10.381 16.4736 10.6855 17.0987 11.2805L18.8102 9.57038C17.7707 8.60228 16.4155 8.00798 14.7978 8.00798C12.4549 8.00798 10.4256 9.35198 9.43863 11.3106L11.4308 12.8562C11.9061 11.4352 13.2333 10.381 14.7978 10.381Z" fill="#E94235"/>
</g>
<defs>
<clipPath id="clip0">
<rect width="52.71" height="28" fill="white" transform="translate(0.736938)"/>
</clipPath>
</defs>
</svg>
