<svg width="118" height="67" viewBox="0 0 118 67" fill="none" xmlns="http://www.w3.org/2000/svg">
<g clip-path="url(#clip0_463_84)">
<path d="M107.839 31.2867C107.852 32.1816 107.479 32.9862 106.719 33.7006C105.961 34.4789 105.057 34.8758 104.007 34.8912L76.8238 35.2895C75.7743 35.3049 74.8945 34.9662 74.1845 34.2733C73.4745 33.5804 73.1134 32.8185 73.1012 31.9876L74.3725 18.447C74.4275 17.4232 74.8696 16.5537 75.699 15.8382C76.4583 15.1238 77.3973 14.7265 78.5159 14.6462L102.325 13.2423C103.445 13.2259 104.43 13.5631 105.28 14.254C106.13 14.9448 106.633 15.8644 106.79 17.0129L107.839 31.2867ZM116.983 10.5341C116.943 7.78559 116.034 5.46533 114.256 3.57337C112.479 1.68141 110.226 0.755421 107.497 0.79541L75.5974 1.74238C71.7518 1.99053 68.5892 3.47538 66.1096 6.19693C63.561 8.98342 62.2117 12.4236 62.0617 16.5176L62.0399 43.2463C62.0821 46.1227 63.1314 48.9162 64.9787 50.8072C66.826 52.6981 69.1141 53.6236 71.843 53.5836L107.408 52.0075C109.925 51.8428 112.01 50.8532 113.663 49.0388C115.317 47.2884 116.195 45.1018 116.296 42.479L116.983 10.5341Z" fill="#4E4E4E"/>
<path d="M71.7703 21.1682C71.8934 29.5629 68.9772 33.3466 73.6219 33.2785L101.624 32.0311L101.548 26.8556C102.721 25.4495 101.939 23.5039 101.902 20.9792C101.716 8.2926 88.5192 7.41276 84.9437 16.1772C81.9297 7.57246 71.6233 11.1326 71.7703 21.1682ZM97.4412 21.234C97.4744 23.5062 94.958 26.9522 91.2548 27.0064L80.5845 27.1628C77.3835 27.2097 75.1641 24.2751 75.1243 21.561C75.0726 18.0264 77.9848 17.3105 79.805 17.2838C82.3156 17.247 83.6589 18.4688 83.7024 21.4353L83.8942 34.5231C83.7869 27.2015 97.3292 13.5968 97.4412 21.234Z" fill="#4E4E4E"/>
<path d="M95.0293 42.9504L90.8708 42.9381C90.5935 42.9372 90.3437 43.0263 90.1214 43.2051C89.9267 43.4096 89.829 43.6401 89.8283 43.8965L90.1594 58.3981C90.1585 58.6801 90.0609 58.8978 89.8663 59.051C89.6717 59.23 89.4497 59.3191 89.2002 59.3183L86.955 59.1578C86.7055 59.157 86.4697 59.2333 86.2474 59.3864C86.0251 59.5653 85.9135 59.7957 85.9127 60.0778L86.1117 63.0785C86.1108 63.3605 86.221 63.5916 86.4423 63.7718C86.6635 63.952 86.9128 64.0424 87.19 64.0433L102.08 63.126C103.245 63.0269 104.203 62.6067 104.953 61.8653C105.704 61.1495 106.109 60.2789 106.167 59.2534C106.253 58.228 106.312 57.2153 106.343 56.2154C106.343 55.9333 106.233 55.6766 106.012 55.4451C105.819 55.2394 105.57 55.1361 105.265 55.1352L100.691 55.0062C100.386 55.0053 100.122 55.0814 99.8998 55.2346C99.7052 55.4135 99.5798 55.6311 99.5236 55.8874C99.4951 56.1437 99.4666 56.4 99.4381 56.6564C99.3536 57.092 99.1446 57.4504 98.8111 57.7315C98.4776 58.0125 98.0752 58.1652 97.6038 58.1894L96.6888 58.2252C96.4116 58.2243 96.1624 58.121 95.9412 57.9152C95.7477 57.7352 95.6513 57.5041 95.6522 57.222L96.066 43.9151C96.0668 43.6587 95.9566 43.4276 95.7354 43.2218C95.5419 43.0417 95.3065 42.9513 95.0293 42.9504Z" fill="#4E4E4E"/>
<path d="M92.7059 44.0119L89.2966 44.0017C89.0694 44.0011 88.8646 44.0811 88.6823 44.2418C88.5226 44.4256 88.4424 44.6327 88.4418 44.8631L88.7098 57.8916C88.7091 58.145 88.6289 58.3406 88.4694 58.4784C88.3098 58.6391 88.1278 58.7192 87.9232 58.7186L86.0827 58.5749C85.8781 58.5743 85.6847 58.6429 85.5025 58.7805C85.3202 58.9413 85.2286 59.1483 85.2279 59.4017L85.3903 62.0976C85.3896 62.351 85.4799 62.5586 85.6612 62.7204C85.8426 62.8822 86.0469 62.9635 86.2741 62.9641L98.4818 62.1366C99.4366 62.0473 100.222 61.6695 100.838 61.0032C101.453 60.36 101.785 59.5777 101.833 58.6564C101.904 57.7351 101.952 56.8252 101.978 55.9268C101.978 55.6734 101.888 55.4428 101.707 55.2349C101.548 55.0501 101.344 54.9574 101.094 54.9566L97.3443 54.8418C97.0943 54.8411 96.8782 54.9095 96.696 55.0472C96.5364 55.208 96.4335 55.4035 96.3874 55.6337C96.364 55.8641 96.3405 56.0944 96.3171 56.3247C96.2478 56.7161 96.0764 57.0381 95.8029 57.2907C95.5294 57.5433 95.1994 57.6806 94.813 57.7024L94.0628 57.7348C93.8355 57.7341 93.6313 57.6413 93.45 57.4565C93.2914 57.2948 93.2124 57.0872 93.2132 56.8338L93.5556 44.8783C93.5563 44.6479 93.466 44.4403 93.2847 44.2555C93.1261 44.0938 92.9331 44.0126 92.7059 44.0119Z" fill="#AFAFAF"/>
<path d="M100.853 28.6272C100.865 29.4604 100.548 30.2091 99.9033 30.8733C99.2591 31.597 98.4907 31.9654 97.598 31.9785L74.4778 32.3173C73.5852 32.3304 72.8365 32.014 72.2318 31.3681C71.627 30.7222 71.319 30.0124 71.3077 29.2387L72.373 16.6337C72.4185 15.6807 72.7936 14.8716 73.4981 14.2065C74.1432 13.5423 74.9413 13.1735 75.8927 13.1L96.1419 11.8211C97.0941 11.8072 97.9321 12.1223 98.6558 12.7664C99.3795 13.4106 99.8087 14.2674 99.9435 15.3369L100.853 28.6272ZM108.989 9.60158C108.951 7.04259 107.792 4.59676 106.278 2.83322C104.764 1.06968 102.847 0.204911 100.526 0.238923L73.3951 1.08293C70.1246 1.30943 67.4364 2.68812 65.3307 5.219C63.1662 7.81026 62.0227 11.0116 61.8999 14.8229L62.0023 40.0895C62.0416 42.7675 62.8479 44.9878 64.4214 46.7505C65.9949 48.5132 67.9421 49.3775 70.263 49.3435L100.51 47.9181C102.651 47.7677 104.423 46.8488 105.827 45.1616C107.232 43.5338 108.223 41.6294 108.306 39.1877L108.989 9.60158Z" fill="#AFAFAF"/>
<path d="M76.1434 53.052L84.1198 26.1492L86.9094 26.1083L76.1434 53.052Z" fill="#4E4E4E"/>
<path d="M79.2079 52.7278L89.1575 27.1914L92.505 27.1426L79.2079 52.7278Z" fill="#4E4E4E"/>
<path d="M46.4209 33.1624C46.434 34.0573 46.0609 34.862 45.3015 35.5764C44.5431 36.3547 43.6391 36.7515 42.5895 36.7669L15.4059 37.1653C14.3563 37.1806 13.4765 36.8419 12.7665 36.149C12.0565 35.4562 11.6954 34.6943 11.6832 33.8633L12.9545 20.3227C13.0095 19.299 13.4517 18.4294 14.281 17.714C15.0404 16.9996 15.9794 16.6022 17.0979 16.5219L40.9075 15.1181C42.0271 15.1017 43.0118 15.4389 43.8617 16.1297C44.7117 16.8205 45.2151 17.7402 45.3719 18.8887L46.4209 33.1624ZM55.5648 12.4099C55.5246 9.66132 54.6157 7.34106 52.8384 5.4491C51.061 3.55714 48.8079 2.63115 46.079 2.67114L14.1794 3.61811C10.3338 3.86626 7.17124 5.35111 4.69164 8.07266C2.143 10.8592 0.793698 14.2994 0.643737 18.3933L0.621959 45.1221C0.66411 47.9985 1.71339 50.792 3.56073 52.6829C5.40807 54.5738 7.69617 55.4993 10.425 55.4593L45.9897 53.8832C48.5067 53.7185 50.5918 52.7289 52.2449 50.9146C53.8989 49.1641 54.7767 46.9775 54.8782 44.3548L55.5648 12.4099Z" fill="#4E4E4E"/>
<path d="M10.3529 23.044C10.4759 31.4386 7.55976 35.2223 12.2044 35.1543L40.2068 33.9069L40.1309 28.7313C41.3031 27.3252 40.5212 25.3796 40.4843 22.8549C40.2983 10.1683 27.1018 9.28849 23.5262 18.053C20.5122 9.44819 10.2058 13.0083 10.3529 23.044ZM36.0237 23.1097C36.057 25.3819 33.5405 28.8279 29.8373 28.8822L19.1671 29.0385C15.966 29.0854 13.7466 26.1508 13.7069 23.4367C13.6551 19.9022 16.5673 19.1862 18.3875 19.1595C20.8982 19.1227 22.2414 20.3445 22.2849 23.311L22.4767 36.3988C22.3694 29.0772 35.9118 15.4725 36.0237 23.1097Z" fill="#4E4E4E"/>
<path d="M33.6118 44.8262L29.4533 44.8139C29.176 44.813 28.9263 44.902 28.7039 45.0809C28.5093 45.2854 28.4115 45.5159 28.4108 45.7723L28.7419 60.2738C28.7411 60.5559 28.6434 60.7736 28.4489 60.9268C28.2543 61.1058 28.0322 61.1948 27.7827 61.1941L25.5376 61.0336C25.2881 61.0328 25.0522 61.1091 24.8299 61.2622C24.6076 61.4411 24.496 61.6715 24.4952 61.9536L24.6942 64.9543C24.6933 65.2363 24.8036 65.4674 25.0248 65.6476C25.2461 65.8277 25.4953 65.9182 25.7725 65.9191L40.6628 65.0018C41.8275 64.9027 42.7852 64.4825 43.536 63.7411C44.2867 63.0253 44.6912 62.1547 44.7497 61.1292C44.836 60.1038 44.8944 59.0911 44.9251 58.0912C44.926 57.8091 44.8158 57.5523 44.5947 57.3209C44.4013 57.1152 44.1521 57.0119 43.8471 57.011L39.2731 56.882C38.9681 56.8811 38.7045 56.9572 38.4823 57.1104C38.2877 57.2893 38.1623 57.5069 38.1061 57.7632C38.0776 58.0195 38.0491 58.2758 38.0206 58.5322C37.9362 58.9678 37.7272 59.3262 37.3936 59.6073C37.0601 59.8883 36.6577 60.041 36.1863 60.0652L35.2713 60.101C34.9941 60.1001 34.7449 59.9968 34.5237 59.791C34.3302 59.611 34.2338 59.3799 34.2347 59.0978L34.6485 45.7909C34.6493 45.5345 34.5391 45.3034 34.3179 45.0976C34.1244 44.9175 33.889 44.8271 33.6118 44.8262Z" fill="#4E4E4E"/>
<path d="M31.2884 45.8876L27.8792 45.8775C27.6519 45.8768 27.4471 45.9568 27.2648 46.1175C27.1051 46.3014 27.025 46.5085 27.0243 46.7388L27.2923 59.7674C27.2916 60.0208 27.2115 60.2163 27.0519 60.3541C26.8924 60.5149 26.7103 60.595 26.5057 60.5944L24.6652 60.4507C24.4606 60.45 24.2672 60.5186 24.085 60.6563C23.9027 60.817 23.8112 61.0241 23.8104 61.2775L23.9728 63.9733C23.9721 64.2267 24.0624 64.4344 24.2437 64.5962C24.4251 64.758 24.6294 64.8392 24.8567 64.8399L37.0643 64.0123C38.0191 63.923 38.8044 63.5452 39.42 62.879C40.0356 62.2357 40.3675 61.4534 40.4157 60.5321C40.4866 59.6108 40.5348 58.701 40.5602 57.8026C40.561 57.5492 40.4707 57.3185 40.2895 57.1106C40.131 56.9259 39.9267 56.8331 39.6767 56.8324L35.9268 56.7175C35.6768 56.7168 35.4607 56.7853 35.2785 56.9229C35.1189 57.0837 35.016 57.2792 34.9699 57.5095C34.9465 57.7398 34.9231 57.9701 34.8997 58.2004C34.8303 58.5918 34.6589 58.9138 34.3854 59.1664C34.1119 59.419 33.7819 59.5563 33.3955 59.5782L32.6453 59.6105C32.4181 59.6098 32.2138 59.5171 32.0325 59.3322C31.8739 59.1705 31.795 58.9629 31.7957 58.7095L32.1381 46.754C32.1388 46.5237 32.0485 46.3161 31.8672 46.1312C31.7086 45.9695 31.5157 45.8883 31.2884 45.8876Z" fill="#AFAFAF"/>
<path d="M39.4346 30.5029C39.4468 31.3361 39.1303 32.0848 38.4853 32.749C37.8412 33.4727 37.0727 33.8411 36.1801 33.8542L13.0599 34.193C12.1672 34.2061 11.4185 33.8897 10.8138 33.2438C10.2091 32.5979 9.90106 31.8881 9.88972 31.1145L10.955 18.5095C11.0006 17.5564 11.3756 16.7473 12.0802 16.0823C12.7252 15.418 13.5234 15.0492 14.4747 14.9757L34.7239 13.6968C35.6761 13.6829 36.5141 13.998 37.2378 14.6422C37.9616 15.2863 38.3908 16.1431 38.5255 17.2126L39.4346 30.5029ZM47.571 11.4773C47.5335 8.91832 46.3741 6.47249 44.8602 4.70895C43.3462 2.94541 41.4288 2.08064 39.1078 2.11466L11.9771 2.95867C8.70662 3.18517 6.01847 4.56386 3.91269 7.09473C1.74826 9.68599 0.604689 12.8873 0.481971 16.6987L0.584372 41.9652C0.623616 44.6432 1.42997 46.8636 3.00343 48.6262C4.57689 50.3889 6.52409 51.2532 8.84504 51.2192L39.0922 49.7938C41.2329 49.6434 43.0052 48.7246 44.409 47.0373C45.8138 45.4096 46.8052 43.5051 46.8885 41.0634L47.571 11.4773Z" fill="#AFAFAF"/>
<path d="M14.7264 54.9277L22.7028 28.0249L25.4924 27.984L14.7264 54.9277Z" fill="#4E4E4E"/>
<path d="M17.7904 54.6036L27.74 29.0671L31.0875 29.0184L17.7904 54.6036Z" fill="#4E4E4E"/>
</g>
<defs>
<clipPath id="clip0_463_84">
<rect width="117.765" height="66.6202" fill="white"/>
</clipPath>
</defs>
</svg>
